<?xml version="1.0" encoding="utf-8"?>
<?xml-stylesheet type="text/xsl" href="rss1.xsl"?>
<rss version="2.0" xmlns:atom="http://www.w3.org/2005/Atom" xmlns:content="http://purl.org/rss/1.0/modules/content/" xmlns:dc="http://purl.org/dc/elements/1.1/" xmlns:media="http://search.yahoo.com/mrss/">
<channel>
 <title>Getty</title>
 <link>http://www.gettyimg.com/</link>
 <atom:link href="http://www.gettyimg.com/" rel="self" type="application/rss+xml" />

 
                <item>
                <title><![CDATA[【Apple Music】WEB-RiP - Doda &amp; Smolasty - Nie żałuję (1080p)]]></title>
                <link><![CDATA[https://sharemania.us/threads/doda-smolasty-nie-%C5%BCa%C5%82uj%C4%99-1080p.249502/]]></link>
                <description><![CDATA[<article>
<blockquote class="messageText SelectQuoteContainer ugc baseHtml">
<img src="https://i.postimg.cc/XqFhv2VC/Doda-Smolasty-Nie-a-uj-mp4.jpg" class="bbCodeImage LbImage" alt="[​IMG]" data-url="https://i.postimg.cc/XqFhv2VC/Doda-Smolasty-Nie-a-uj-mp4.jpg" style=""><br>
<br>
<div class="bbCodeBlock bbCodeCode">
<div class="type">Code:</div>
<pre>General
Complete name                  : G:\Новая папка\Doda &amp; Smolasty - Nie żałuję.mp4
Format                         : MPEG-4
Format profile                 : Base Media
Codec ID                       : isom (isom/iso2/avc1/mp41)
File size                      : 154 MiB
Duration                       : 3 min 9 s
Overall bit rate               : 6 839 kb/s
Frame rate                     : 25.000 FPS
Movie name                     : Nie żałuję
Performer                      : Doda &amp; Smolasty
Genre                          : Pop
ContentType                    : Music Video
Recorded date                  : 2024-05-21 07:00:00 UTC
Writing application            : Lavf56.30.100
Copyright                      : ℗ A Polydor release; © 2023 QUEEN RECORDS, under exclusive license to Universal Music Polska

Video
ID                             : 1
Format                         : AVC
Format/Info                    : Advanced Video Codec
Format profile                 : High@L4
Format settings                : CABAC / 4 Ref Frames
Format settings, CABAC         : Yes
Format settings, Reference fra : 4 frames
Format settings, Slice count   : 8 slices per frame
Codec ID                       : avc1
Codec ID/Info                  : Advanced Video Coding
Duration                       : 3 min 9 s
Bit rate                       : 6 579 kb/s
Width                          : 1 920 pixels
Height                         : 960 pixels
Display aspect ratio           : 2.000
Frame rate mode                : Constant
Frame rate                     : 25.000 FPS
Color space                    : YUV
Chroma subsampling             : 4:2:0
Bit depth                      : 8 bits
Scan type                      : Progressive
Bits/(Pixel*Frame)             : 0.143
Stream size                    : 149 MiB (96%)
Color range                    : Limited
Color primaries                : BT.709
Transfer characteristics       : BT.709
Matrix coefficients            : BT.709
Codec configuration box        : avcC

Audio
ID                             : 2
Format                         : AAC LC
Format/Info                    : Advanced Audio Codec Low Complexity
Codec ID                       : mp4a-40-2
Duration                       : 3 min 9 s
Duration_LastFrame             : -5 ms
Bit rate mode                  : Constant
Bit rate                       : 255 kb/s
Channel(s)                     : 2 channels
Channel layout                 : L R
Sampling rate                  : 48.0 kHz
Frame rate                     : 46.875 FPS (1024 SPF)
Compression mode               : Lossy
Stream size                    : 5.77 MiB (4%)
Default                        : Yes
Alternate group                : 1

</pre>
</div>
<div class="bbCodeBlock bbCodeVfcHH HiddenContent">
<div class="attribution type">Hidden Content:</div>
<blockquote>You must either reply or click 'Like' to see the hidden information contained here.</blockquote>
</div>
<div class="messageTextEndMarker">&nbsp;</div>
</blockquote>
</article>]]></description>
                <author><![CDATA[vitalya3]]></author>
                </item>

                
                <item>
                <title><![CDATA[【Apple Music】WEB-RiP - Neptunica &amp; LUNAX - Darkness (1080p)]]></title>
                <link><![CDATA[https://sharemania.us/threads/neptunica-lunax-darkness-1080p.249498/]]></link>
                <description><![CDATA[<article>
<blockquote class="messageText SelectQuoteContainer ugc baseHtml">
<img src="https://i.postimg.cc/DwRD3kQc/Neptunica-LUNAX-Darkness-mp4.jpg" class="bbCodeImage LbImage" alt="[​IMG]" data-url="https://i.postimg.cc/DwRD3kQc/Neptunica-LUNAX-Darkness-mp4.jpg" style=""><br>
<br>
<div class="bbCodeBlock bbCodeCode">
<div class="type">Code:</div>
<pre>General
Complete name                  : G:\Новая папка\Neptunica &amp; LUNAX - Darkness.mp4
Format                         : MPEG-4
Format profile                 : Base Media
Codec ID                       : isom (isom/iso2/avc1/mp41)
File size                      : 232 MiB
Duration                       : 3 min 10 s
Overall bit rate               : 10.2 Mb/s
Frame rate                     : 25.000 FPS
Movie name                     : Darkness
Performer                      : Neptunica &amp; LUNAX
Genre                          : Dance
ContentType                    : Music Video
Recorded date                  : 2022-01-27 08:00:00 UTC
Writing application            : Lavf56.30.100
Copyright                      : ℗ 2022 Kontor Records GmbH / Beat Dealer Records

Video
ID                             : 1
Format                         : AVC
Format/Info                    : Advanced Video Codec
Format profile                 : High@L4
Format settings                : CABAC / 5 Ref Frames
Format settings, CABAC         : Yes
Format settings, Reference fra : 5 frames
Format settings, Slice count   : 8 slices per frame
Codec ID                       : avc1
Codec ID/Info                  : Advanced Video Coding
Duration                       : 3 min 10 s
Bit rate                       : 9 980 kb/s
Width                          : 1 440 pixels
Height                         : 1 080 pixels
Display aspect ratio           : 4:3
Frame rate mode                : Constant
Frame rate                     : 25.000 FPS
Color space                    : YUV
Chroma subsampling             : 4:2:0
Bit depth                      : 8 bits
Scan type                      : Progressive
Bits/(Pixel*Frame)             : 0.257
Stream size                    : 226 MiB (97%)
Color range                    : Limited
Color primaries                : BT.709
Transfer characteristics       : BT.709
Matrix coefficients            : BT.709
Codec configuration box        : avcC

Audio
ID                             : 2
Format                         : AAC LC
Format/Info                    : Advanced Audio Codec Low Complexity
Codec ID                       : mp4a-40-2
Duration                       : 3 min 10 s
Duration_LastFrame             : -4 ms
Bit rate mode                  : Constant
Bit rate                       : 256 kb/s
Channel(s)                     : 2 channels
Channel layout                 : L R
Sampling rate                  : 48.0 kHz
Frame rate                     : 46.875 FPS (1024 SPF)
Compression mode               : Lossy
Stream size                    : 5.80 MiB (2%)
Default                        : Yes
Alternate group                : 1

</pre>
</div>
<div class="bbCodeBlock bbCodeVfcHH HiddenContent">
<div class="attribution type">Hidden Content:</div>
<blockquote>You must either reply or click 'Like' to see the hidden information contained here.</blockquote>
</div>
<div class="messageTextEndMarker">&nbsp;</div>
</blockquote>
</article>]]></description>
                <author><![CDATA[vitalya3]]></author>
                </item>

                
                <item>
                <title><![CDATA[【Cinema Center】MOVIE - Everlasting.Love.2014.SPANISH.1080p.AMZN.WEB-DL.DDP2.0.x264-NTb (3.82 GB)]]></title>
                <link><![CDATA[https://sharemania.us/threads/everlasting-love-2014-spanish-1080p-amzn-web-dl-ddp2-0-x264-ntb-3-82-gb.249500/]]></link>
                <description><![CDATA[<article>
<blockquote class="messageText SelectQuoteContainer ugc baseHtml">
<img src="https://i.imgur.com/N8hC9QS.jpg" class="bbCodeImage LbImage" alt="[​IMG]" data-url="https://i.imgur.com/N8hC9QS.jpg" style=""> <br>
<span style="color: #5900b3">Also known as : <b>Amor eterno</b></span><b><br>
<span style="font-size: 18px">Each day after work, Carlos, a language school teacher, frequents the heady surroundings of his local cruising ground. One evening he encounters a teenage boy from his class named Toni, and the two engage in a brief sexual tryst. As the relationship between teacher and student begins to develop, some dark truths emerge about the young man and his mysterious group of friends.<br>
<br>
<span style="color: #ff0000">Download</span></span><br>
<div class="bbCodeBlock bbCodeVfcHH HiddenContent">
<div class="attribution type">Hidden Content:</div>
<blockquote>You must either reply or click 'Like' to see the hidden information contained here.</blockquote>
</div></b>
<div class="messageTextEndMarker">&nbsp;</div>
</blockquote>
</article>]]></description>
                <author><![CDATA[frank_21]]></author>
                </item>

                
                <item>
                <title><![CDATA[【Albums (lossless)】FLAC - DEFTONES - 2000 - White Pony [20th Anniversary Deluxe Edition] [24bit-96kHz]]]></title>
                <link><![CDATA[https://sharemania.us/threads/deftones-2000-white-pony-20th-anniversary-deluxe-edition-24bit-96khz.249497/]]></link>
                <description><![CDATA[<article>
<blockquote class="messageText SelectQuoteContainer ugc baseHtml">
<div style="text-align: center"><img src="https://static.qobuz.com/images/covers/2b/md/mppy6x4d3md2b_600.jpg" class="bbCodeImage LbImage" alt="[​IMG]" data-url="https://static.qobuz.com/images/covers/2b/md/mppy6x4d3md2b_600.jpg" style=""> <br>
<br>
<b>Band</b>: Deftones<br>
<b>Album</b>: White Pony [20th Anniversary Deluxe Edition]<br>
<b>Date</b>: 16 April 2020<br>
<b>Genre</b>: Nu-Metal / Alternative Metal<br>
<b>Quality</b>: 24bit-96kHz<br>
<b>Country</b>: USA<br>
<b>Size</b>: 2,2GB<br>
<br>
<b>Tracklist</b>:<br>
<br>
<br>
1-Feiticeira 03:09<br>
2-Digital Bath 04:15<br>
3-Elite 04:01<br>
4-Rx Queen 04:28<br>
5-Street Carp 02:41<br>
6-Teenager 03:20<br>
7-Knife Prty 04:49<br>
8-Korea 03:23<br>
9-Passenger 06:08<br>
10-Change (In the House of Flies) 04:59<br>
11-Pink Maggit 07:33<br>
12-Feiticeira (Clams Casino Remix) 02:02<br>
13-Digital Bath (DJ Shadow Remix) 03:24<br>
14-Elite (Blanck Mass Remix) 05:20<br>
15-Rx Queen (Salva Remix) 04:14<br>
16-Street Carp (Phantogram Remix) 03:31<br>
17-Teenager (Robert Smith Remix) 03:07<br>
18-Knife Prty (Purity Ring Remix) 04:28<br>
19-Korea (Trevor Jackson Remix) 04:31<br>
20-Passenger (Mike Shinoda Remix) 04:46<br>
21-Change (In The House Of Flies) (Tourist Remix) 05:02<br>
22-Pink Maggit (Squarepusher Remix) 10:12<br>
<br>
<b><span style="font-size: 22px"><span style="color: #b30000">Send.cm</span></span></b>:<br>
<br>
<div class="bbCodeBlock bbCodeVfcHH HiddenContent">
<div class="attribution type">Hidden Content:</div>
<blockquote>You must either reply or click 'Like' to see the hidden information contained here.</blockquote>
</div></div>
<div class="messageTextEndMarker">&nbsp;</div>
</blockquote>
</article>]]></description>
                <author><![CDATA[XRB80]]></author>
                </item>

                
                <item>
                <title><![CDATA[【Apple Music】WEB-RiP - Lanberry - Piątek (1080p)]]></title>
                <link><![CDATA[https://sharemania.us/threads/lanberry-pi%C4%85tek-1080p.249504/]]></link>
                <description><![CDATA[<article>
<blockquote class="messageText SelectQuoteContainer ugc baseHtml">
<img src="https://i.postimg.cc/x8JQ3y9f/Lanberry-Pi-tek-mp4.jpg" class="bbCodeImage LbImage" alt="[​IMG]" data-url="https://i.postimg.cc/x8JQ3y9f/Lanberry-Pi-tek-mp4.jpg" style=""><br>
<br>
<div class="bbCodeBlock bbCodeCode">
<div class="type">Code:</div>
<pre>General
Complete name                  : G:\Новая папка\Lanberry - Piątek.mp4
Format                         : MPEG-4
Format profile                 : Base Media
Codec ID                       : isom (isom/iso2/avc1/mp41)
File size                      : 165 MiB
Duration                       : 3 min 19 s
Overall bit rate               : 6 937 kb/s
Frame rate                     : 25.000 FPS
Movie name                     : Piątek
Performer                      : Lanberry
Genre                          : Pop
ContentType                    : Music Video
Recorded date                  : 2016-08-05 07:00:00 UTC
Writing application            : Lavf56.30.100
Copyright                      : ℗ 2016 Universal Music Polska

Video
ID                             : 1
Format                         : AVC
Format/Info                    : Advanced Video Codec
Format profile                 : High@L4
Format settings                : CABAC / 4 Ref Frames
Format settings, CABAC         : Yes
Format settings, Reference fra : 4 frames
Format settings, Slice count   : 8 slices per frame
Codec ID                       : avc1
Codec ID/Info                  : Advanced Video Coding
Duration                       : 3 min 19 s
Bit rate                       : 6 680 kb/s
Width                          : 1 916 pixels
Height                         : 980 pixels
Display aspect ratio           : 1.955
Frame rate mode                : Constant
Frame rate                     : 25.000 FPS
Color space                    : YUV
Chroma subsampling             : 4:2:0
Bit depth                      : 8 bits
Scan type                      : Progressive
Bits/(Pixel*Frame)             : 0.142
Stream size                    : 159 MiB (96%)
Color range                    : Limited
Color primaries                : BT.709
Transfer characteristics       : BT.709
Matrix coefficients            : BT.709
Codec configuration box        : avcC

Audio
ID                             : 2
Format                         : AAC LC
Format/Info                    : Advanced Audio Codec Low Complexity
Codec ID                       : mp4a-40-2
Duration                       : 3 min 19 s
Duration_LastFrame             : -15 ms
Bit rate mode                  : Constant
Bit rate                       : 254 kb/s
Channel(s)                     : 2 channels
Channel layout                 : L R
Sampling rate                  : 48.0 kHz
Frame rate                     : 46.875 FPS (1024 SPF)
Compression mode               : Lossy
Stream size                    : 6.03 MiB (4%)
Default                        : Yes
Alternate group                : 1

</pre>
</div>
<div class="bbCodeBlock bbCodeVfcHH HiddenContent">
<div class="attribution type">Hidden Content:</div>
<blockquote>You must either reply or click 'Like' to see the hidden information contained here.</blockquote>
</div>
<div class="messageTextEndMarker">&nbsp;</div>
</blockquote>
</article>]]></description>
                <author><![CDATA[vitalya3]]></author>
                </item>

                
                <item>
                <title><![CDATA[【Apple Music】WEB-RiP - Roksana Węgiel - Dobrze Jest, Jak Jest (1080p)]]></title>
                <link><![CDATA[https://sharemania.us/threads/roksana-w%C4%99giel-dobrze-jest-jak-jest-1080p.249505/]]></link>
                <description><![CDATA[<article>
<blockquote class="messageText SelectQuoteContainer ugc baseHtml">
<img src="https://i.postimg.cc/TYN76Mj4/Roksana-W-giel-Dobrze-Jest-Jak-Jest-mp4.jpg" class="bbCodeImage LbImage" alt="[​IMG]" data-url="https://i.postimg.cc/TYN76Mj4/Roksana-W-giel-Dobrze-Jest-Jak-Jest-mp4.jpg" style=""><br>
<br>
<div class="bbCodeBlock bbCodeCode">
<div class="type">Code:</div>
<pre>General
Complete name                  : G:\Новая папка\Roksana Węgiel - Dobrze Jest, Jak Jest.mp4
Format                         : MPEG-4
Format profile                 : Base Media
Codec ID                       : isom (isom/iso2/avc1/mp41)
File size                      : 146 MiB
Duration                       : 2 min 59 s
Overall bit rate               : 6 804 kb/s
Frame rate                     : 25.000 FPS
Movie name                     : Dobrze Jest, Jak Jest
Performer                      : Roksana Węgiel
Genre                          : Pop
ContentType                    : Music Video
Recorded date                  : 2019-06-05 07:00:00 UTC
Writing application            : Lavf56.30.100
Copyright                      : ℗ 2019 Universal Music Polska

Video
ID                             : 1
Format                         : AVC
Format/Info                    : Advanced Video Codec
Format profile                 : High@L4.1
Format settings                : CABAC / 5 Ref Frames
Format settings, CABAC         : Yes
Format settings, Reference fra : 5 frames
Format settings, Slice count   : 8 slices per frame
Codec ID                       : avc1
Codec ID/Info                  : Advanced Video Coding
Duration                       : 2 min 59 s
Bit rate                       : 6 546 kb/s
Width                          : 1 912 pixels
Height                         : 796 pixels
Display aspect ratio           : 2.40:1
Frame rate mode                : Constant
Frame rate                     : 25.000 FPS
Color space                    : YUV
Chroma subsampling             : 4:2:0
Bit depth                      : 8 bits
Scan type                      : Progressive
Bits/(Pixel*Frame)             : 0.172
Stream size                    : 140 MiB (96%)
Color range                    : Limited
Color primaries                : BT.709
Transfer characteristics       : BT.709
Matrix coefficients            : BT.709
Codec configuration box        : avcC

Audio
ID                             : 2
Format                         : AAC LC
Format/Info                    : Advanced Audio Codec Low Complexity
Codec ID                       : mp4a-40-2
Duration                       : 2 min 59 s
Duration_LastFrame             : -1 ms
Bit rate mode                  : Constant
Bit rate                       : 254 kb/s
Channel(s)                     : 2 channels
Channel layout                 : L R
Sampling rate                  : 48.0 kHz
Frame rate                     : 46.875 FPS (1024 SPF)
Compression mode               : Lossy
Stream size                    : 5.44 MiB (4%)
Default                        : Yes
Alternate group                : 1

</pre>
</div>
<div class="bbCodeBlock bbCodeVfcHH HiddenContent">
<div class="attribution type">Hidden Content:</div>
<blockquote>You must either reply or click 'Like' to see the hidden information contained here.</blockquote>
</div>
<div class="messageTextEndMarker">&nbsp;</div>
</blockquote>
</article>]]></description>
                <author><![CDATA[vitalya3]]></author>
                </item>

                
                <item>
                <title><![CDATA[【SD】Hadise - Stir Me Up (2005, TV-Rip, Turkiye)]]></title>
                <link><![CDATA[https://sharemania.us/threads/hadise-stir-me-up-2005-tv-rip-turkiye.249499/]]></link>
                <description><![CDATA[<article>
<blockquote class="messageText SelectQuoteContainer ugc baseHtml">
Hadise - Stir Me Up (2005, TV-Rip, Turkiye)<br>
<br>
<img src="https://images2.imgbox.com/51/fe/1na2LD4N_o.jpg" class="bbCodeImage LbImage" alt="[​IMG]" data-url="https://images2.imgbox.com/51/fe/1na2LD4N_o.jpg" style=""> <br>
<br>
<span data-s9e-mediaembed="youtube" style="display:inline-block;width:100%;max-width:640px"><span style="display:block;overflow:hidden;position:relative;padding-bottom:56.25%"><iframe allowfullscreen="" loading="lazy" scrolling="no" style="background:url(https://i.ytimg.com/vi/mUQOQ5MNXGA/hqdefault.jpg) 50% 50% / cover;border:0;height:100%;left:0;position:absolute;width:100%" src="https://www.youtube.com/embed/mUQOQ5MNXGA"></iframe></span></span><br>
<br>
<div class="bbCodeBlock bbCodeVfcHH HiddenContent">
<div class="attribution type">Hidden Content:</div>
<blockquote>You must reply before you can see the hidden data contained here.</blockquote>
</div>Greets, 3rsin.
<div class="messageTextEndMarker">&nbsp;</div>
</blockquote>
</article>]]></description>
                <author><![CDATA[fritching]]></author>
                </item>

                
                <item>
                <title><![CDATA[【Requests】[REQ AUD] - Gloria Estefan "Reach" singles (UK and European Editions) in lossless format]]></title>
                <link><![CDATA[https://sharemania.us/threads/gloria-estefan-reach-singles-uk-and-european-editions-in-lossless-format.249501/]]></link>
                <description><![CDATA[<article>
<blockquote class="messageText SelectQuoteContainer ugc baseHtml">
my favorite song and mv from hadise, thank you!
<div class="messageTextEndMarker">&nbsp;</div>
</blockquote>
</article>]]></description>
                <author><![CDATA[jazon]]></author>
                </item>

                
                <item>
                <title><![CDATA[【SD】Hadise - My Body (2008, Turkiye, Pop)]]></title>
                <link><![CDATA[https://sharemania.us/threads/hadise-my-body-2008-turkiye-pop.249503/]]></link>
                <description><![CDATA[<article>
<blockquote class="messageText SelectQuoteContainer ugc baseHtml">
Could anyone provide the "Reach" singles by Gloria Estefan in a lossless format? Specifically, I am looking for the UK and European singles:<br>
<br>
UK Single:<br>
<a href="https://www.discogs.com/release/1278041-Gloria-Estefan-Reach" target="_blank" class="externalLink" rel="nofollow">https://www.discogs.com/release/1278041-Gloria-Estefan-Reach</a><br>
<br>
European Singles:<br>
<a href="https://www.discogs.com/release/1355481-Gloria-Estefan-Reach" target="_blank" class="externalLink" rel="nofollow">https://www.discogs.com/release/1355481-Gloria-Estefan-Reach</a> <br>
<a href="https://www.discogs.com/release/1510168-Gloria-Estefan-Reach" target="_blank" class="externalLink" rel="nofollow">https://www.discogs.com/release/1510168-Gloria-Estefan-Reach</a><br>
<br>
Thank you!
<div class="messageTextEndMarker">&nbsp;</div>
</blockquote>
</article>]]></description>
                <author><![CDATA[fritching]]></author>
                </item>

                </channel></rss>